<svg version="1.1" id="Слой_1" xmlns="http://www.w3.org/2000/svg" xmlns:xlink="http://www.w3.org/1999/xlink" x="0px" y="0px"
	 viewBox="0 0 714 714" style="enable-background:new 0 0 714 714;" xml:space="preserve">
<g>
	<path d="M487.2,426.3c-9.9-14.2-29.4-17.1-45.2-13.4c-4.4,1-8.8,2.4-13.2,3.7c-0.1-15-0.9-30-4.3-44.5c-1.1-5-7,0.5-9.5,2
		c-15.4,10.7-32.8,18.2-50.9,22.9c-31.2,7.3-64.2,5.6-95.5-0.3c-5.2-1.1-10.4-2.3-15.5-3.9c-7-2.2-13.9-4.8-19.4-9.7
		c-4.6-2.9-6.8,3.6-7.5,7c-2.7,16.1-1.4,32.4-0.5,48.6c1.9,26.8,5.1,53.7,11.2,79.9c3.5,15.8,6.9,31.6,11.9,47
		c3.5,10.3,7.1,20.8,14.1,29.4c7.2,8.3,19.2,11.3,29.5,13.8c15.9,3.4,32.3,4.6,48.5,3.3c5.4-0.5,10.8-1.4,16.1-2.8
		c7.8-2,15.8-4,23.2-7.5c4.4-2.1,9-5,11.3-9.4c4.2-7.8,6.7-16.4,9.3-24.8c1.8-6.5,3.4-13,4.9-19.5c11.6-3.3,22.9-7.8,33.5-13.7
		c18.8-10.7,36.4-25.1,46.1-44.9C494.3,471.6,499.2,443.7,487.2,426.3z M398.1,566.7c-2.3,7.6-4.6,15.3-8.1,22.5
		c-2,4.8-6.3,7.8-11,9.9c-7.2,3.4-15,5.3-22.7,7.3c-5.1,1.4-10.3,2.2-15.6,2.7c-21.1,1.6-43-0.3-62.8-7.7c-3.6-1.5-7.1-3.2-10.1-5.6
		c-4.9-4.3-7.9-10.2-10.7-16.2c-6.4-14.7-10.3-30.3-14-45.9c-1.8-7.5-3.5-16-5.3-23.6c-5-23.6-7.7-47.6-9.5-71.6
		c-0.9-15.9-2.2-32.2,0.4-47.9c0.3-1.3,0.6-2.5,1.1-3.6c0.4-1.1,1.2-2.1,1.7-2.2c0.2-0.1,0.6,0,1,0.3c5.6,5.1,13,7.7,20,9.9
		c5.2,1.6,10.5,2.8,15.7,3.9c31.7,5.9,64.9,7.4,96.5-0.1c15.7-4.2,30.8-10.3,44.6-18.9c3.4-2.1,6.7-4.5,10.1-6.7
		c0.9-0.5,2.2-1.5,3.1-1.5c0.1,0,0,0,0.1,0c0.1,0.2,0.2,0.4,0.2,0.7c1.2,4.5,1.9,9.1,2.5,13.8c1.2,10.2,1.8,20.5,1.9,30.8
		c-1.7,0.5-3.4,1-5.2,1.5c-0.1-2.9-0.2-5.9-0.4-8.8c-2-20.3-34.8,0.4-23,11.5c4.4,3.9,12.3,3.1,20.5,1.1c0,5.9-0.2,11.8-0.6,17.6
		c-0.1,1.9-0.3,3.7-0.4,5.6c-2.5,2.4-4.9,4.9-7.3,7.4c2.4-2.5,4.8-4.9,7.3-7.3c-1.8,24.8-5.3,49.5-9.6,74
		c-1.6,8.8-3.3,17.6-5.2,26.3c-11.4,3.1-22.9,4.8-33.9,5.2c-18.5,0.5-37.6-0.8-54.8-8.4c-8.5-3.6-16.3-8.8-23.2-15
		c2.8-9.2,7.8-17.6,14.3-24.7c7.6-7.6,15.2-15.4,21.1-24.5c5.9-9,10.9-19.3,10.8-30.3c0-8.8-5.4-16.5-14.2-18.4
		c-8.3-2-17.1,0.2-22.7,6.9c-0.2,0.3-0.5,0.6-0.7,0.9c-10.1-11.6-28.6-12.5-38.6,0.8c-13.2,18.6-3.3,44.1,6.2,62.1
		c6,11.4,13.5,21.1,22.3,29.1c-0.7,2.6-1.3,5.3-1.6,8c-8.3-6.2-17.2-11.7-26.4-16.3c9.3,4.7,18.1,10.2,26.4,16.5
		c-1.9,13.7,0.2,27.9,7.1,39.9c2.9,4.4,6.3,9.3,11.6,11.1c6.6,1.8,8.5-6.5,8.2-11.4c-0.4-16.8-13.5-29.4-25.9-39.1l-0.1,0
		c0.4-2.5,0.8-5,1.4-7.4c0-0.2,0.1-0.3,0.1-0.5c14.8,12.9,33.2,20.8,54.5,22.6c10.8,1,21.6,1.1,32.4,0.3c8.5-0.9,16.8-2.4,25.1-4.5
		C401.3,554.9,399.8,560.8,398.1,566.7z M426.8,438.5c-1.9,1.3-3.7,2.7-5.4,4.2c0.5-7,0.7-14.1,0.7-21.1c1.7-0.5,3.4-1,5.1-1.5
		C427.2,426.2,427.1,432.3,426.8,438.5z M419.1,419.3c-2.7,0.7-5.4,1.2-8.2,1.6c-7.5,1.2-16.5-2.2-9.5-10.6
		c3.1-3.5,8.1-6.7,12.7-6.2c3.9,0.4,4.6,4.6,4.7,7.9c0.1,1.3,0.2,2.6,0.2,4C419.1,417.1,419.1,418.2,419.1,419.3z M292.3,475.8
		c1.2,5.7,7.4,12.5,12.7,6.6c7.4-9.7,4-29.6-1.5-39.7c-0.7-1.3-1.5-2.5-2.4-3.6c1.9-2.4,4.2-4.5,6.8-6c6.8-3.5,15.9-3,22.1,1.6
		c8.6,7,6.8,19.8,3.2,29.1c-3.9,9.9-10.2,18.8-17.1,26.9c-3.5,4.1-7.4,7.8-11.1,11.7c-3.6,4-6.8,8.4-9.4,13.2
		c-2,3.7-3.6,7.5-4.8,11.5c-16.3-15-27.6-36.1-32.4-57.2c-1.9-10.1-1.6-21.6,4.8-30.1c6.1-8.5,18.3-11.4,27.6-6.7
		c3.2,1.5,5.9,3.7,8.1,6.3C291.8,449.6,289.5,464.2,292.3,475.8z M299.9,440.8c3.7,5.1,5.8,11.6,6.8,17.8c1,7.3,1.5,16.4-3,22.6
		c-4.1,4.6-8.7-1.7-9.6-5.9C291.4,465.1,293.3,450.5,299.9,440.8z M289.2,538.6c8.4,6.6,16.4,14.1,21.5,23.6c2.5,4.7,3.8,10,4,15.4
		c0.3,4.6-1.4,12.5-7.6,10.8c-5-1.7-8.4-6.6-11.2-10.9C289.2,565.9,287.3,551.8,289.2,538.6z M406.5,545.1c5.4-24,9-48.4,12.1-72.8
		c1.1-9.8,2.1-19.7,2.8-29.5c1.7-1.5,3.5-2.9,5.4-4.2c-0.4,9.3-1.1,18.6-1.9,27.8c-2,20.7-5.2,41.3-9.4,61.6
		c-1.3,5.4,3.1,5.8,7.1,4.3c7.6-2.9,14.2-8,20.4-13.1c12.1-10.5,23.3-23,29.1-38.2c1.8-5.1,3.2-10.3,4.1-15.6
		c1.8-10.4,0.6-23.1-8.9-29.4c-9.1-5.9-21.1-6.5-31.1-2.7c-2.7,1.1-5.3,2.4-7.8,4c0-1,0.1-2,0.1-3c0.1-4.9,0.2-9.9,0.2-14.8
		c5.3-1.7,10.3-3.3,13.8-4c5.1-1.2,10.4-1.6,15.6-1.2c10.3,0.6,20.7,4.9,26.7,13.5c6.1,8.6,7.2,19.7,6.4,30
		C488.4,502.6,448.6,532.8,406.5,545.1z M428.4,437.6c2.5-1.6,5.1-2.9,7.8-4c9.9-3.8,21.9-3,30.8,2.8c9.3,6.3,10.4,18.8,8.6,29
		c-1.8,10.5-5.5,20.8-11.6,29.6c-6,8.8-13.5,16.7-21.6,23.6c-4.1,3.4-8.4,6.6-13,9.4c-3.4,1.9-7,4-10.9,4.1c-3.3,0-1.9-3.8-1.5-5.7
		C423.1,497.1,427.2,467.4,428.4,437.6z"/>
	<path d="M247.3,384.4c42.8,9.5,102,11.1,143.3-4.3c11.3-4.3,21.6-11.4,29.9-20.2c0.8-0.9,1.6-1.8,2.4-2.7c4.4-0.5,8.8-1.5,13.1-2.8
		c16.8-5.2,35-14.9,43.5-30.9c6.1-11.2,2.6-25.5-6.8-33.8c-14-12-35-11.8-52.4-11c-36.2,2.4-71.4,11.9-107,18
		c-11,1.7-49.6,9.2-53-5.1c0.2-7.9,14.4-16.6,20.8-20.8c2.2-1.3,4.5-2.6,6.7-3.9c21.8-1.9,44.3,2.9,63.4,13.9
		c-17.8-11.3-39.8-16.3-61.5-15c5.3-3,10.7-5.8,16.2-8.4c42.1,4,125.2,5.9,120.5-21.4c-1.1-5.4-4.4-9.3-9.8-10.5
		c-16.3-3.6-38.2,2.8-54.1,7.2c-12.6,3.6-35.3,11.7-56.5,21.5c-6.9-0.7-13.7-1.6-20.5-2.6c-19.3-3-42.1-11.8-51.3-30.2
		c-7.8-18.1,10.2-23.2,24.7-21.8c17.8,1.6,34.9,8.2,51.1,15.5c8.3,3.7,16.4,8.8,25.8,9.3c12.8,1.3,26.7-7.5,27-21.2
		c0.3-10.7-9.1-17.3-18.7-18.7c-9.2-1.6-18.3,0.4-27.3,1.8c-8.7,1.1-17.9,0.5-26.1-2.8c-10.7-4.1-20.2-13.8-20.7-25.6
		c-0.3-15.6,12.4-23.8,26.8-26.9c-2.7,12.2-0.6,25.6,9,33.9c6.8,5.6,17.8,8.4,26.2,5.6c9.1-3,14.7-13.2,13-22.5
		c-1-6.2-5.3-11.6-10.6-14.8c-8-4.8-17.6-5.8-26.7-5.4c-3,0.1-6.1,0.4-9.3,0.9c2.1-8.1,6.4-15.5,12.6-20.1c9.5-7,23.4-9.4,33.5-2.3
		c4.9,3.4,8.3,9.1,8.3,15.1h0.3c0-3-0.8-6.1-2.2-8.7c-9.9-17.3-36.3-12.8-46.7,1.8c-3,4.2-5.3,9.2-6.7,14.4
		c-12,2.2-23.8,7.9-28.2,19.8c-4.6,12.2,2.2,25.8,12.5,32.7c7.6,5.3,17,7.7,26.3,7.9c6.1,0.2,12.3-0.9,18.2-1.9
		c8.6-1.3,17.9-1.6,25.7,2.4c11.6,6,10.3,20.5,0.4,27.5c-7.1,5.2-16.6,5.2-24.7,2.5c-5.6-1.9-10.8-5-16.3-7.4
		c-16.6-7.5-33.9-14.2-52.1-15.8c-6.2-0.4-12.5-0.2-18.5,1.9c-10.8,3.9-14,14.2-9.3,24.2c9.8,19.7,33.1,28.7,53.6,32
		c3.1,0.6,8.5,1.4,15.4,2.1c-6.3,3.1-12.3,6.3-17.8,9.6c-12.5,1.6-24.7,5.4-35.7,11.4c-10.5,5.8-21,13.9-24.7,25.9
		c-10.4,31,10,54.4,40.5,58.7c21,3.7,44.2,0.2,60.3-14.6c13.3-11.9,22-29.3,38.8-36.8c2.2-0.9,4.4-1.5,6.8-2c-2.2,3-3.7,6.6-4.3,11
		c-0.7,6.1,1.2,12.4,4.7,17.4c8.9,12.3,24.2,17.4,38.6,19.7c-3.3,5-8.1,8.8-13.8,11c-42.1,14.5-98.9,2.1-142.8-1.5
		c-7.6-0.4-15.5-1.5-22.9,0.7c-2.7,0.8-5.2,3.5-3.9,6.5C227.6,379.6,240.8,382.6,247.3,384.4z M325.7,131.4c8.4,2.1,16.5,8.1,18,17
		c1.7,8.6-3.4,18-11.8,20.8c-5.5,1.9-11.8,0.9-17.2-0.9c-5.6-2-10.4-5.9-13.3-11c-4.2-7.4-5.1-17.2-3.1-26.4
		C307.8,129,318,129.4,325.7,131.4z M363.5,235.3c11.5-3.3,23.2-6.2,35-7.6c5.8-0.6,11.8-0.9,17.4,0.5c2,0.5,3.8,1.3,5.1,2.8
		c1.9,2.6,3.3,6.2,2.4,9.2c-3.2,9.3-21.3,12.2-30.1,13.7c-27,3.4-54.5,3.2-81.7,0.7C328.5,247,345.9,240.7,363.5,235.3z M361,308.6
		c-17.1,7.7-26,25.2-39.3,37.3c-13.3,12.2-31.9,16.8-49.5,15.4c-11.8-0.9-23.9-3.3-33.7-10.1c-15.6-10.5-20.7-29.6-14.5-47
		c3.6-11.6,13.7-19.4,23.9-25.2c10.2-5.7,21.4-9.4,32.9-11.2c-10.1,6.3-18.1,12.8-21.8,19c-4.2,7.4,2.9,12.9,9.4,14.5
		c3,0.8,6.1,1.2,9.2,1.3c6.1,0.3,12.2-0.2,18.2-0.9c30-3.8,59.2-11.6,88.9-16.6c11.9-2,23.8-3.8,35.7-4.6
		c11.9-0.7,24.1-0.7,35.6,2.4c5.7,1.6,11.2,4.1,15.6,8c6.5,5.8,10.5,14.9,9.2,23.6c-1.3,8.9-7.1,16.3-13.8,22.1
		c-12.2,10.2-27.4,17-43.2,19.2c6.5-8.4,10.3-18.4,7.6-29.3c-2.3-12.1-11.6-22.3-23.2-26.2c-12.3-4.5-28.1-3.2-37.1,5.6
		C367.6,306.3,364.2,307.2,361,308.6z M414.2,331.9c-3.8-17.9-23.6-27.5-41.3-26.1c4.4-4,10.5-6.6,17.5-6.9
		c18.2-1.5,36.6,9.2,40.1,27.9c1.3,5.8,1.2,11.9-1.1,17.5c-1.8,4.3-4.2,8.2-7.1,11.8c-1.4,0.2-2.9,0.3-4.3,0.4
		c-2.3,0.1-4.5,0.1-6.8-0.2C415.1,349.1,416.1,340.4,414.2,331.9z M400.2,354.3c-11.4-2.8-23.2-7.9-30.2-17.7
		c-6.9-9.9-5.8-20.6,0.2-28c14-2.2,29.6,3.2,37.8,15c4.8,7.6,5.6,17.6,3.1,26.2c-0.6,2.2-1.6,4.3-2.7,6.2
		C405.7,355.5,403,354.9,400.2,354.3z M233.2,368.4c11.9-0.9,23.9,1.1,35.7,2.3c38.9,4.2,88.6,12.8,126.1-0.3
		c6.9-2.7,12.2-7.3,15.6-13.1c3.5,0.4,7.1,0.3,10.6,0c-6.3,7.4-14.5,13.4-22.9,18c-33.5,16-78.6,16-115,12.9
		c-11.9-1.2-23.9-2.9-35.5-5.8c-5.7-1.5-11.6-3.1-16.8-5.8C223.2,372.5,225.9,369,233.2,368.4z"/>
</g>
</svg>
